<?xml version="1.0" encoding="UTF-8"?>
<svg width="250px" height="80px" viewBox="0 0 250 80" version="1.1" xmlns="http://www.w3.org/2000/svg" xmlns:xlink="http://www.w3.org/1999/xlink">
    <!-- Generator: Sketch 61 (89581) - https://sketch.com -->
    <title>button / button-solid</title>
    <desc>Created with Sketch.</desc>
    <g id="hot-sauce-page" stroke="none" stroke-width="1" fill="none" fill-rule="evenodd">
        <g id="MT_hot-sauce-lp-home" transform="translate(-595.000000, -556.000000)">
            <g id="Group" transform="translate(10.000000, 200.000000)">
                <g id="card" transform="translate(524.000000, 20.000000)">
                    <g id="button-/-button-solid" transform="translate(61.000000, 336.000000)">
                        <g id="button">
                            <rect id="container" fill="#00CEC9" x="0" y="0" width="250" height="80" rx="1"></rect>
                            <path d="M39.964,44 L39.964,36.92 L42.748,36.92 L42.748,35.6 L35.62,35.6 L35.62,36.92 L38.404,36.92 L38.404,44 L39.964,44 Z M46.814,44 L46.814,41.552 L48.81125,41.55125 C48.90575,41.54975 48.98,41.546 49.034,41.54 L49.034,41.54 L50.75,44 L52.43,44 L50.498,41.24 C51.074,41.016 51.516,40.676 51.824,40.22 C52.132,39.764 52.286,39.22 52.286,38.588 C52.286,37.972 52.142,37.44 51.854,36.992 C51.566,36.544 51.152,36.2 50.612,35.96 C50.072,35.72 49.438,35.6 48.71,35.6 L48.71,35.6 L45.254,35.6 L45.254,44 L46.814,44 Z M48.638,40.268 L46.814,40.268 L46.814,36.92 L48.638,36.92 C49.318,36.92 49.834,37.064 50.186,37.352 C50.538,37.64 50.714,38.052 50.714,38.588 C50.714,39.124 50.538,39.538 50.186,39.83 C49.834,40.122 49.318,40.268 48.638,40.268 L48.638,40.268 Z M58.968,44.12 C60.128,44.12 61.03,43.794 61.674,43.142 C62.318,42.49 62.64,41.556 62.64,40.34 L62.64,40.34 L62.64,35.6 L61.104,35.6 L61.104,40.28 C61.104,41.928 60.396,42.752 58.98,42.752 C57.556,42.752 56.844,41.928 56.844,40.28 L56.844,40.28 L56.844,35.6 L55.284,35.6 L55.284,40.34 C55.284,41.556 55.608,42.49 56.256,43.142 C56.904,43.794 57.808,44.12 58.968,44.12 Z M72.454,44 L72.454,42.692 L67.714,42.692 L67.714,40.376 L71.77,40.376 L71.77,39.092 L67.714,39.092 L67.714,36.908 L72.286,36.908 L72.286,35.6 L66.154,35.6 L66.154,44 L72.454,44 Z M81.654,44 L81.654,38.504 L84.414,43.04 L85.11,43.04 L87.87,38.432 L87.882,44 L89.358,44 L89.346,35.6 L88.062,35.6 L84.786,41.168 L81.45,35.6 L80.166,35.6 L80.166,44 L81.654,44 Z M94.516,44 L94.516,35.6 L92.956,35.6 L92.956,44 L94.516,44 Z M104.066,44 L104.066,42.68 L99.674,42.68 L99.674,35.6 L98.114,35.6 L98.114,44 L104.066,44 Z M110.304,44 C111.2,44 111.996,43.826 112.692,43.478 C113.388,43.13 113.928,42.638 114.312,42.002 C114.696,41.366 114.888,40.632 114.888,39.8 C114.888,38.968 114.696,38.234 114.312,37.598 C113.928,36.962 113.388,36.47 112.692,36.122 C111.996,35.774 111.2,35.6 110.304,35.6 L110.304,35.6 L106.632,35.6 L106.632,44 L110.304,44 Z M110.232,42.68 L108.192,42.68 L108.192,36.92 L110.232,36.92 C110.848,36.92 111.39,37.038 111.858,37.274 C112.326,37.51 112.686,37.846 112.938,38.282 C113.19,38.718 113.316,39.224 113.316,39.8 C113.316,40.376 113.19,40.882 112.938,41.318 C112.686,41.754 112.326,42.09 111.858,42.326 C111.39,42.562 110.848,42.68 110.232,42.68 L110.232,42.68 Z M128.816,44 L128.816,42.692 L124.076,42.692 L124.076,40.376 L128.132,40.376 L128.132,39.092 L124.076,39.092 L124.076,36.908 L128.648,36.908 L128.648,35.6 L122.516,35.6 L122.516,44 L128.816,44 Z M132.546,44 L134.802,40.808 L137.082,44 L138.882,44 L135.726,39.656 L138.666,35.6 L136.974,35.6 L134.85,38.588 L132.702,35.6 L130.938,35.6 L133.89,39.716 L130.77,44 L132.546,44 Z M142.72,44 L142.72,41.576 L144.616,41.576 C145.344,41.576 145.978,41.456 146.518,41.216 C147.058,40.976 147.472,40.63 147.76,40.178 C148.048,39.726 148.192,39.196 148.192,38.588 C148.192,37.972 148.048,37.44 147.76,36.992 C147.472,36.544 147.058,36.2 146.518,35.96 C145.978,35.72 145.344,35.6 144.616,35.6 L144.616,35.6 L141.16,35.6 L141.16,44 L142.72,44 Z M144.544,40.256 L142.72,40.256 L142.72,36.92 L144.544,36.92 C145.224,36.92 145.74,37.064 146.092,37.352 C146.444,37.64 146.62,38.052 146.62,38.588 C146.62,39.124 146.444,39.536 146.092,39.824 C145.74,40.112 145.224,40.256 144.544,40.256 L144.544,40.256 Z M157.382,44 L157.382,42.692 L152.642,42.692 L152.642,40.376 L156.698,40.376 L156.698,39.092 L152.642,39.092 L152.642,36.908 L157.214,36.908 L157.214,35.6 L151.082,35.6 L151.082,44 L157.382,44 Z M162.012,44 L162.012,41.552 L164.00925,41.55125 C164.10375,41.54975 164.178,41.546 164.232,41.54 L164.232,41.54 L165.948,44 L167.628,44 L165.696,41.24 C166.272,41.016 166.714,40.676 167.022,40.22 C167.33,39.764 167.484,39.22 167.484,38.588 C167.484,37.972 167.34,37.44 167.052,36.992 C166.764,36.544 166.35,36.2 165.81,35.96 C165.27,35.72 164.636,35.6 163.908,35.6 L163.908,35.6 L160.452,35.6 L160.452,44 L162.012,44 Z M163.836,40.268 L162.012,40.268 L162.012,36.92 L163.836,36.92 C164.516,36.92 165.032,37.064 165.384,37.352 C165.736,37.64 165.912,38.052 165.912,38.588 C165.912,39.124 165.736,39.538 165.384,39.83 C165.032,40.122 164.516,40.268 163.836,40.268 L163.836,40.268 Z M172.114,44 L172.114,35.6 L170.554,35.6 L170.554,44 L172.114,44 Z M182.012,44 L182.012,42.692 L177.272,42.692 L177.272,40.376 L181.328,40.376 L181.328,39.092 L177.272,39.092 L177.272,36.908 L181.844,36.908 L181.844,35.6 L175.712,35.6 L175.712,44 L182.012,44 Z M186.63,44 L186.63,38.312 L191.262,44 L192.546,44 L192.546,35.6 L190.998,35.6 L190.998,41.288 L186.366,35.6 L185.082,35.6 L185.082,44 L186.63,44 Z M200.02,44.12 C200.708,44.12 201.338,44 201.91,43.76 C202.482,43.52 202.964,43.172 203.356,42.716 L203.356,42.716 L202.348,41.756 C201.74,42.42 200.992,42.752 200.104,42.752 C199.528,42.752 199.012,42.626 198.556,42.374 C198.1,42.122 197.744,41.772 197.488,41.324 C197.232,40.876 197.104,40.368 197.104,39.8 C197.104,39.232 197.232,38.724 197.488,38.276 C197.744,37.828 198.1,37.478 198.556,37.226 C199.012,36.974 199.528,36.848 200.104,36.848 C200.992,36.848 201.74,37.176 202.348,37.832 L202.348,37.832 L203.356,36.884 C202.964,36.428 202.484,36.08 201.916,35.84 C201.348,35.6 200.72,35.48 200.032,35.48 C199.184,35.48 198.418,35.666 197.734,36.038 C197.05,36.41 196.512,36.924 196.12,37.58 C195.728,38.236 195.532,38.976 195.532,39.8 C195.532,40.624 195.726,41.364 196.114,42.02 C196.502,42.676 197.038,43.19 197.722,43.562 C198.406,43.934 199.172,44.12 200.02,44.12 Z M212.486,44 L212.486,42.692 L207.746,42.692 L207.746,40.376 L211.802,40.376 L211.802,39.092 L207.746,39.092 L207.746,36.908 L212.318,36.908 L212.318,35.6 L206.186,35.6 L206.186,44 L212.486,44 Z" id="TRUEMILDEXPERIENCE" fill="#191919" fill-rule="nonzero"></path>
                        </g>
                    </g>
                </g>
            </g>
        </g>
    </g>
</svg>