<?xml version="1.0" encoding="UTF-8"?>
<svg width="250px" height="80px" viewBox="0 0 250 80" version="1.1" xmlns="http://www.w3.org/2000/svg" xmlns:xlink="http://www.w3.org/1999/xlink">
    <!-- Generator: Sketch 61 (89581) - https://sketch.com -->
    <title>button / button-solid</title>
    <desc>Created with Sketch.</desc>
    <g id="hot-sauce-page" stroke="none" stroke-width="1" fill="none" fill-rule="evenodd">
        <g id="MT_hot-sauce-lp-home" transform="translate(-595.000000, -428.000000)">
            <g id="Group" transform="translate(10.000000, 200.000000)">
                <g id="card" transform="translate(524.000000, 20.000000)">
                    <g id="button-/-button-solid" transform="translate(61.000000, 208.000000)">
                        <g id="button">
                            <rect id="container" fill="#FF7675" x="0" y="0" width="250" height="80" rx="1"></rect>
                            <path d="M32.351,44 L32.351,38.504 L35.111,43.04 L35.807,43.04 L38.567,38.432 L38.579,44 L40.055,44 L40.043,35.6 L38.759,35.6 L35.483,41.168 L32.147,35.6 L30.863,35.6 L30.863,44 L32.351,44 Z M45.213,44 L45.213,35.6 L43.653,35.6 L43.653,44 L45.213,44 Z M52.735,44.12 C53.343,44.12 53.935,44.028 54.511,43.844 C55.087,43.66 55.591,43.396 56.023,43.052 L56.023,43.052 L56.023,39.704 L54.547,39.704 L54.547,42.32 C54.051,42.608 53.475,42.752 52.819,42.752 C52.235,42.752 51.713,42.624 51.253,42.368 C50.793,42.112 50.433,41.76 50.173,41.312 C49.913,40.864 49.783,40.36 49.783,39.8 C49.783,39.224 49.913,38.712 50.173,38.264 C50.433,37.816 50.793,37.468 51.253,37.22 C51.713,36.972 52.239,36.848 52.831,36.848 C53.735,36.848 54.507,37.168 55.147,37.808 L55.147,37.808 L56.131,36.848 C55.739,36.4 55.255,36.06 54.679,35.828 C54.103,35.596 53.463,35.48 52.759,35.48 C51.895,35.48 51.117,35.666 50.425,36.038 C49.733,36.41 49.191,36.924 48.799,37.58 C48.407,38.236 48.211,38.976 48.211,39.8 C48.211,40.624 48.407,41.364 48.799,42.02 C49.191,42.676 49.731,43.19 50.419,43.562 C51.107,43.934 51.879,44.12 52.735,44.12 Z M60.965,44 L60.965,40.4 L65.309,40.4 L65.309,44 L66.869,44 L66.869,35.6 L65.309,35.6 L65.309,39.068 L60.965,39.068 L60.965,35.6 L59.405,35.6 L59.405,44 L60.965,44 Z M73.719,44 L73.719,36.92 L76.503,36.92 L76.503,35.6 L69.375,35.6 L69.375,36.92 L72.159,36.92 L72.159,44 L73.719,44 Z M82.513,44 L82.513,41.036 L85.801,35.6 L84.265,35.6 L81.781,39.692 L79.321,35.6 L77.653,35.6 L80.953,41.06 L80.953,44 L82.513,44 Z M94.353,44 L94.353,40.4 L98.697,40.4 L98.697,44 L100.257,44 L100.257,35.6 L98.697,35.6 L98.697,39.068 L94.353,39.068 L94.353,35.6 L92.793,35.6 L92.793,44 L94.353,44 Z M107.767,44.12 C108.623,44.12 109.395,43.934 110.083,43.562 C110.771,43.19 111.311,42.676 111.703,42.02 C112.095,41.364 112.291,40.624 112.291,39.8 C112.291,38.976 112.095,38.236 111.703,37.58 C111.311,36.924 110.771,36.41 110.083,36.038 C109.395,35.666 108.623,35.48 107.767,35.48 C106.911,35.48 106.139,35.666 105.451,36.038 C104.763,36.41 104.223,36.926 103.831,37.586 C103.439,38.246 103.243,38.984 103.243,39.8 C103.243,40.616 103.439,41.354 103.831,42.014 C104.223,42.674 104.763,43.19 105.451,43.562 C106.139,43.934 106.911,44.12 107.767,44.12 Z M107.767,42.752 C107.207,42.752 106.703,42.626 106.255,42.374 C105.807,42.122 105.455,41.77 105.199,41.318 C104.943,40.866 104.815,40.36 104.815,39.8 C104.815,39.24 104.943,38.734 105.199,38.282 C105.455,37.83 105.807,37.478 106.255,37.226 C106.703,36.974 107.207,36.848 107.767,36.848 C108.327,36.848 108.831,36.974 109.279,37.226 C109.727,37.478 110.079,37.83 110.335,38.282 C110.591,38.734 110.719,39.24 110.719,39.8 C110.719,40.36 110.591,40.866 110.335,41.318 C110.079,41.77 109.727,42.122 109.279,42.374 C108.831,42.626 108.327,42.752 107.767,42.752 Z M118.421,44 L118.421,36.92 L121.205,36.92 L121.205,35.6 L114.077,35.6 L114.077,36.92 L116.861,36.92 L116.861,44 L118.421,44 Z M134.653,44 L134.653,42.692 L129.913,42.692 L129.913,40.376 L133.969,40.376 L133.969,39.092 L129.913,39.092 L129.913,36.908 L134.485,36.908 L134.485,35.6 L128.353,35.6 L128.353,44 L134.653,44 Z M138.383,44 L140.639,40.808 L142.919,44 L144.719,44 L141.563,39.656 L144.503,35.6 L142.811,35.6 L140.687,38.588 L138.539,35.6 L136.775,35.6 L139.727,39.716 L136.607,44 L138.383,44 Z M148.557,44 L148.557,41.576 L150.453,41.576 C151.181,41.576 151.815,41.456 152.355,41.216 C152.895,40.976 153.309,40.63 153.597,40.178 C153.885,39.726 154.029,39.196 154.029,38.588 C154.029,37.972 153.885,37.44 153.597,36.992 C153.309,36.544 152.895,36.2 152.355,35.96 C151.815,35.72 151.181,35.6 150.453,35.6 L150.453,35.6 L146.997,35.6 L146.997,44 L148.557,44 Z M150.381,40.256 L148.557,40.256 L148.557,36.92 L150.381,36.92 C151.061,36.92 151.577,37.064 151.929,37.352 C152.281,37.64 152.457,38.052 152.457,38.588 C152.457,39.124 152.281,39.536 151.929,39.824 C151.577,40.112 151.061,40.256 150.381,40.256 L150.381,40.256 Z M163.219,44 L163.219,42.692 L158.479,42.692 L158.479,40.376 L162.535,40.376 L162.535,39.092 L158.479,39.092 L158.479,36.908 L163.051,36.908 L163.051,35.6 L156.919,35.6 L156.919,44 L163.219,44 Z M167.849,44 L167.849,41.552 L169.84625,41.55125 C169.94075,41.54975 170.015,41.546 170.069,41.54 L170.069,41.54 L171.785,44 L173.465,44 L171.533,41.24 C172.109,41.016 172.551,40.676 172.859,40.22 C173.167,39.764 173.321,39.22 173.321,38.588 C173.321,37.972 173.177,37.44 172.889,36.992 C172.601,36.544 172.187,36.2 171.647,35.96 C171.107,35.72 170.473,35.6 169.745,35.6 L169.745,35.6 L166.289,35.6 L166.289,44 L167.849,44 Z M169.673,40.268 L167.849,40.268 L167.849,36.92 L169.673,36.92 C170.353,36.92 170.869,37.064 171.221,37.352 C171.573,37.64 171.749,38.052 171.749,38.588 C171.749,39.124 171.573,39.538 171.221,39.83 C170.869,40.122 170.353,40.268 169.673,40.268 L169.673,40.268 Z M177.951,44 L177.951,35.6 L176.391,35.6 L176.391,44 L177.951,44 Z M187.849,44 L187.849,42.692 L183.109,42.692 L183.109,40.376 L187.165,40.376 L187.165,39.092 L183.109,39.092 L183.109,36.908 L187.681,36.908 L187.681,35.6 L181.549,35.6 L181.549,44 L187.849,44 Z M192.467,44 L192.467,38.312 L197.099,44 L198.383,44 L198.383,35.6 L196.835,35.6 L196.835,41.288 L192.203,35.6 L190.919,35.6 L190.919,44 L192.467,44 Z M205.857,44.12 C206.545,44.12 207.175,44 207.747,43.76 C208.319,43.52 208.801,43.172 209.193,42.716 L209.193,42.716 L208.185,41.756 C207.577,42.42 206.829,42.752 205.941,42.752 C205.365,42.752 204.849,42.626 204.393,42.374 C203.937,42.122 203.581,41.772 203.325,41.324 C203.069,40.876 202.941,40.368 202.941,39.8 C202.941,39.232 203.069,38.724 203.325,38.276 C203.581,37.828 203.937,37.478 204.393,37.226 C204.849,36.974 205.365,36.848 205.941,36.848 C206.829,36.848 207.577,37.176 208.185,37.832 L208.185,37.832 L209.193,36.884 C208.801,36.428 208.321,36.08 207.753,35.84 C207.185,35.6 206.557,35.48 205.869,35.48 C205.021,35.48 204.255,35.666 203.571,36.038 C202.887,36.41 202.349,36.924 201.957,37.58 C201.565,38.236 201.369,38.976 201.369,39.8 C201.369,40.624 201.563,41.364 201.951,42.02 C202.339,42.676 202.875,43.19 203.559,43.562 C204.243,43.934 205.009,44.12 205.857,44.12 Z M218.323,44 L218.323,42.692 L213.583,42.692 L213.583,40.376 L217.639,40.376 L217.639,39.092 L213.583,39.092 L213.583,36.908 L218.155,36.908 L218.155,35.6 L212.023,35.6 L212.023,44 L218.323,44 Z" id="MIGHTYHOTEXPERIENCE" fill="#191919" fill-rule="nonzero"></path>
                        </g>
                    </g>
                </g>
            </g>
        </g>
    </g>
</svg>