<?xml version="1.0" encoding="UTF-8"?>
<svg width="24px" height="24px" viewBox="0 0 24 24" version="1.1" xmlns="http://www.w3.org/2000/svg" xmlns:xlink="http://www.w3.org/1999/xlink">
    <!-- Generator: sketchtool 61 (101010) - https://sketch.com -->
    <title>D5CAF2E0-EDA9-4467-B19E-830FEB945AB0</title>
    <desc>Created with sketchtool.</desc>
    <g id="hot-sauce-page" stroke="none" stroke-width="1" fill="none" fill-rule="evenodd">
        <g id="MT_hot-sauce-lp-home" transform="translate(-1382.000000, -224.000000)" fill="#000000" fill-rule="nonzero">
            <g id="circular-converging-arrows" transform="translate(1382.000000, 224.000000)">
                <path d="M22.4528,14.8328 C22.3488,14.5964 22.0724,14.4896 21.8368,14.5972 C21.6016,14.7012 21.4964,14.9784 21.6016,15.214 C22.9444,18.2152 23.002,20.6456 21.7628,21.8892 C19.446,24.2076 13.0976,21.7808 7.9048,16.586 C6.1884,14.8696 4.7816,13.0284 3.7416,11.2484 C3.9132,10.9892 4.08,10.73 4.2664,10.474 C4.4168,10.2628 4.3696,9.9724 4.1604,9.8212 C3.9504,9.6716 3.6596,9.7192 3.5088,9.9284 C3.4112,10.062 3.3292,10.1956 3.236,10.3304 C1.55,7.08 1.1832,4.1488 2.6028,2.7276 C4.01,1.3224 6.8996,1.67 10.1104,3.3132 C9.884,3.478 9.6568,3.6368 9.4304,3.8096 C9.2268,3.9676 9.1896,4.2608 9.3464,4.4648 C9.4384,4.5844 9.5764,4.6452 9.716,4.6452 C9.8164,4.6452 9.9168,4.614 10.0036,4.548 C10.3368,4.2888 10.678,4.0436 11.0184,3.8064 C12.6744,4.7612 14.3852,6.0428 16.0036,7.592 L13.99,7.59 C13.7316,7.59 13.5228,7.8004 13.5228,8.0572 C13.5228,8.314 13.7316,8.5244 13.99,8.5244 L17.7456,8.528 L17.7456,4.77 C17.7456,4.512 17.536,4.3028 17.2784,4.3028 C17.0212,4.3028 16.8112,4.512 16.8112,4.77 L16.8112,7.072 C15.2052,5.51 13.5384,4.2144 11.908,3.2204 C12.0284,3.1448 12.1488,3.0596 12.268,2.9868 C12.4872,2.8508 12.5584,2.5652 12.4244,2.3436 C12.2884,2.1232 12.0008,2.0524 11.7812,2.1884 C11.5224,2.3476 11.2592,2.5232 10.9984,2.698 C7.2148,0.634 3.7492,0.2612 1.9452,2.066 C0.122,3.8904 0.52,7.406 2.634,11.2332 C2.4012,11.6036 2.1804,11.9732 1.976,12.3416 C1.8512,12.5668 1.9332,12.8524 2.1592,12.9768 C2.2304,13.0168 2.308,13.0352 2.3844,13.0352 C2.5488,13.0352 2.7084,12.9468 2.7932,12.7928 C2.91,12.5812 3.0468,12.3676 3.1716,12.154 C4.2212,13.852 5.5852,15.5884 7.2448,17.2468 C11.3488,21.3528 15.9272,23.7144 19.216,23.7144 C20.526,23.7144 21.6328,23.3392 22.424,22.55 C23.9508,21.0196 23.9632,18.2056 22.4528,14.8328 Z" id="Path"></path>
                <path d="M15.77,12.6 C15.5116,12.6 15.3028,12.8108 15.3028,13.0672 L15.3,16.824 L19.0568,16.824 C19.3152,16.824 19.524,16.614 19.524,16.3568 C19.524,16.0984 19.3152,15.8896 19.0568,15.8896 L16.7536,15.8896 C17.0256,15.6084 17.2984,15.3292 17.5528,15.0476 C17.7264,14.856 17.7112,14.5612 17.5192,14.388 C17.3276,14.2152 17.032,14.23 16.8596,14.4208 C16.6588,14.6436 16.4436,14.8624 16.234,15.0812 L16.236,13.0704 C16.2372,12.8108 16.0284,12.6 15.77,12.6 Z" id="Path"></path>
                <path d="M18.9812,13.0308 C19.1244,13.0308 19.2668,12.966 19.3568,12.8408 C19.9372,12.0512 20.4628,11.2476 20.9188,10.4484 C21.0464,10.224 20.968,9.9376 20.7436,9.8092 C20.5216,9.6832 20.2336,9.7576 20.1048,9.9848 C19.6668,10.7508 19.1616,11.5248 18.6036,12.2848 C18.4512,12.4936 18.496,12.786 18.7012,12.9372 C18.7876,13.0012 18.884,13.0308 18.9812,13.0308 Z" id="Path"></path>
                <path d="M19.828,0.9572 C20.3352,1.1012 20.7632,1.346 21.1,1.6796 C21.3132,1.8936 21.492,2.1484 21.628,2.4364 C21.7084,2.6048 21.8772,2.702 22.0496,2.702 C22.1184,2.702 22.1868,2.6868 22.2516,2.656 C22.484,2.5432 22.5828,2.2656 22.4716,2.032 C22.288,1.6492 22.048,1.3096 21.7572,1.0192 C21.3072,0.5716 20.7416,0.248 20.0812,0.06 C19.8348,-0.0156 19.5736,0.1332 19.5056,0.3816 C19.4352,0.6292 19.5808,0.8876 19.828,0.9572 Z" id="Path"></path>
                <path d="M21.9428,4.928 C21.856,5.726 21.6336,6.5976 21.2816,7.5204 C21.19,7.762 21.3116,8.032 21.5524,8.1244 C21.6092,8.1436 21.6628,8.154 21.7204,8.154 C21.9068,8.154 22.0864,8.0388 22.1576,7.8532 C22.536,6.856 22.778,5.904 22.874,5.0292 C22.902,4.7732 22.7168,4.5428 22.4624,4.5144 C22.2092,4.4872 21.9712,4.6732 21.9428,4.928 Z" id="Path"></path>
                <path d="M1.072,17.8728 C1.1288,17.0824 1.3256,16.2064 1.658,15.2704 C1.7456,15.026 1.6176,14.7596 1.3748,14.6728 C1.1324,14.5812 0.8648,14.714 0.778,14.9564 C0.414,15.9728 0.2004,16.9316 0.1376,17.8072 C0.1204,18.0644 0.3136,18.2888 0.5708,18.3052 C0.5836,18.3072 0.5936,18.3072 0.6044,18.3072 C0.85,18.3052 1.0548,18.1172 1.072,17.8728 Z" id="Path"></path>
                <path d="M3.4708,21.6276 C2.8468,21.496 2.332,21.2296 1.9396,20.8388 C1.7844,20.6836 1.6476,20.508 1.53,20.3108 C1.3976,20.09 1.1112,20.0172 0.8884,20.1476 C0.6668,20.2788 0.5948,20.5656 0.7252,20.7892 C0.8812,21.052 1.0672,21.292 1.278,21.5028 C1.8008,22.0248 2.4716,22.3752 3.2764,22.5428 C3.3092,22.5504 3.3392,22.5536 3.3732,22.5536 C3.5888,22.5536 3.7828,22.4032 3.8296,22.184 C3.884,21.9296 3.7224,21.6812 3.4708,21.6276 Z" id="Path"></path>
                <path d="M8.616,20.6812 C7.7212,21.082 6.8604,21.3712 6.0576,21.5424 C5.8048,21.5992 5.646,21.8456 5.6984,22.0984 C5.7456,22.3184 5.9392,22.4688 6.1544,22.4688 C6.1864,22.4688 6.2184,22.4652 6.2512,22.4588 C7.1188,22.2736 8.0412,21.9636 8.9964,21.5364 C9.232,21.4312 9.3368,21.1552 9.232,20.9196 C9.1276,20.6812 8.852,20.5736 8.616,20.6812 Z" id="Path"></path>
                <path d="M14.5076,1.7648 C14.5684,1.7648 14.6316,1.7516 14.6908,1.7264 C15.598,1.3396 16.4628,1.0696 17.262,0.9248 C17.516,0.878 17.684,0.6332 17.638,0.3812 C17.5916,0.128 17.3424,-0.034 17.0944,0.006 C16.2264,0.1648 15.294,0.4536 14.324,0.8696 C14.0856,0.9696 13.9764,1.244 14.076,1.482 C14.1532,1.658 14.3268,1.7648 14.5076,1.7648 Z" id="Path"></path>
                <path d="M7.2656,5.6608 C7.0368,5.8748 6.8096,6.096 6.5832,6.3232 C6.1288,6.7752 5.6964,7.2368 5.284,7.7024 C5.1132,7.8956 5.1324,8.19 5.3252,8.362 C5.4156,8.4404 5.5252,8.4788 5.6344,8.4788 C5.7648,8.4788 5.8916,8.4244 5.9844,8.3208 C6.3848,7.8704 6.8028,7.424 7.2444,6.9828 C7.4616,6.7644 7.6844,6.55 7.9076,6.34 C8.0948,6.1644 8.1048,5.8684 7.9268,5.6796 C7.7492,5.4924 7.4524,5.484 7.2656,5.6608 Z" id="Path"></path>
            </g>
        </g>
    </g>
</svg>