<?xml version="1.0" encoding="UTF-8"?>
<svg width="283px" height="16px" viewBox="0 0 283 16" version="1.1" xmlns="http://www.w3.org/2000/svg" xmlns:xlink="http://www.w3.org/1999/xlink">
    <!-- Generator: sketchtool 61 (101010) - https://sketch.com -->
    <title>EDE79364-3D92-43B2-909B-3C46C866117E</title>
    <desc>Created with sketchtool.</desc>
    <g id="hot-sauce-page" stroke="none" stroke-width="1" fill="none" fill-rule="evenodd">
        <g id="MT_hot-sauce-lp-home" transform="translate(-572.000000, -400.000000)">
            <g id="Group" transform="translate(10.000000, 200.000000)">
                <g id="card" transform="translate(524.000000, 20.000000)">
                    <g id="Group-3" transform="translate(36.000000, 176.000000)">
                        <g id="icon-/-hero-/-arrow-right" transform="translate(263.000000, 0.000000)">
                            <g id="icon-/-arrow-right">
                                <rect id="container" x="0" y="0" width="24" height="24"></rect>
                                <path d="M18.59,13.0547295 L3,13.0547295 C2.44771525,13.0547295 2,12.6070142 2,12.0547295 C2,11.5024447 2.44771525,11.0547295 3,11.0547295 L18.59,11.0547295 L13.29,5.75472949 C13.0065035,5.50828075 12.8850342,5.12374405 12.9755153,4.75916151 C13.0659964,4.39457897 13.3531635,4.11145651 13.7189927,4.02615564 C14.0848219,3.94085477 14.4675971,4.06776595 14.71,4.35472949 L21.71,11.3547295 C22.0911429,11.743573 22.0911429,12.365886 21.71,12.7547295 L14.71,19.7547295 C14.3156765,20.0975222 13.7239217,20.0789637 13.3518532,19.7121356 C12.9797846,19.3453075 12.9528347,18.7538754 13.29,18.3547295 L18.59,13.0547295 L18.59,13.0547295 Z" id="Path" fill="#FDFDFD"></path>
                            </g>
                        </g>
                        <g id="icon-/-hero-/-arrow-left">
                            <g id="icon-/-arrow-left">
                                <rect id="container" x="0" y="0" width="24" height="24"></rect>
                                <path d="M5.40585716,10.9453048 L20.9958572,10.9453048 C21.5481419,10.9453048 21.9958572,11.39302 21.9958572,11.9453048 C21.9958572,12.4975895 21.5481419,12.9453048 20.9958572,12.9453048 L5.40585716,12.9453048 L10.7058572,18.2453048 C11.0430224,18.6444507 11.0160725,19.2358827 10.644004,19.6027109 C10.2719355,19.969539 9.68018066,19.9880975 9.28585716,19.6453048 L2.28585716,12.6453048 C1.90471428,12.2564613 1.90471428,11.6341483 2.28585716,11.2453048 L9.28585716,4.24530477 C9.68018066,3.90251207 10.2719355,3.92107056 10.644004,4.28789869 C11.0160725,4.65472681 11.0430224,5.24615887 10.7058572,5.64530477 L5.39585716,10.9453048 L5.40585716,10.9453048 Z" id="Path" fill="#FDFDFD"></path>
                            </g>
                        </g>
                        <line x1="21.5" y1="12" x2="268.5" y2="12" id="Line" stroke="#FDFDFD" stroke-width="2" stroke-linecap="square"></line>
                    </g>
                </g>
            </g>
        </g>
    </g>
</svg>