<?xml version="1.0" encoding="UTF-8"?>
<svg width="30px" height="24px" viewBox="0 0 30 24" version="1.1" xmlns="http://www.w3.org/2000/svg" xmlns:xlink="http://www.w3.org/1999/xlink">
    <!-- Generator: sketchtool 60 (101010) - https://sketch.com -->
    <title>8F1B9BB4-BF16-43CC-AB4B-103F9B61C09F</title>
    <desc>Created with sketchtool.</desc>
    <defs>
        <path d="M26.5021154,5.97888462 C26.5208654,6.24126923 26.5208654,6.50371154 26.5208654,6.76609615 C26.5208654,14.7691731 20.4295385,23.9905962 9.29636538,23.9905962 C5.86644231,23.9905962 2.68021154,22.9971923 0,21.2729423 C0.487326923,21.3291346 0.955846154,21.3478846 1.46192308,21.3478846 C4.29201923,21.3478846 6.89728846,20.3920385 8.97773077,18.7614231 C6.31626923,18.7051731 4.08588462,16.9621154 3.31742308,14.5630385 C3.69230769,14.6192308 4.06713462,14.6567308 4.46076923,14.6567308 C5.00428846,14.6567308 5.54786538,14.5817308 6.05388462,14.4505962 C3.27998077,13.8882692 1.19948077,11.45175 1.19948077,8.50915385 L1.19948077,8.43421154 C2.00538462,8.88403846 2.94259615,9.16517308 3.93588462,9.20261538 C2.30526923,8.11551923 1.23698077,6.26001923 1.23698077,4.16082692 C1.23698077,3.03628846 1.53680769,2.00544231 2.06163462,1.10578846 C5.04173077,4.77934615 9.52125,7.17836538 14.5442308,7.44080769 C14.4505385,6.99098077 14.3942885,6.52246154 14.3942885,6.05388462 C14.3942885,2.71765385 17.09325,0 20.4481731,0 C22.1912308,0 23.7655962,0.730961538 24.8714423,1.91175 C26.2396154,1.64936538 27.5515962,1.14328846 28.7136923,0.449826923 C28.2638077,1.85555769 27.3079615,3.03634615 26.0522308,3.786 C27.2705192,3.65486538 28.4513077,3.31742308 29.5383462,2.84890385 C28.7138077,4.04838462 27.6829038,5.11667308 26.5021154,5.97888462 Z" id="path-1"></path>
    </defs>
    <g id="pages" stroke="none" stroke-width="1" fill="none" fill-rule="evenodd">
        <g id="project_unisys" transform="translate(-1708.000000, -4728.000000)">
            <g id="footer" transform="translate(0.000000, 4658.000000)">
                <g id="section">
                    <g id="div" transform="translate(1666.000000, 70.000000)">
                        <g id="icon-twitter" transform="translate(42.000000, 0.000000)">
                            <mask id="mask-2" fill="white">
                                <use xlink:href="#path-1"></use>
                            </mask>
                            <use id="Mask" fill="#000000" fill-rule="nonzero" xlink:href="#path-1"></use>
                            <g id="Color" mask="url(#mask-2)" fill="#5C5C5C">
                                <g transform="translate(0.000000, -2.769231)" id="Purple">
                                    <rect x="0" y="0" width="29.5384615" height="29.5384615"></rect>
                                </g>
                            </g>
                        </g>
                    </g>
                </g>
            </g>
        </g>
    </g>
</svg>